# Blender v2.77 (sub 0) OBJ File: 'jetpack.blend'
# www.blender.org
o Plane
v 0.000000 0.125000 0.353553
v 0.353553 0.125000 -0.000000
v -0.353553 0.125000 0.000000
v -0.000000 0.125000 -0.353553
v 0.000000 2.429817 0.000000
v 0.000000 -0.475000 1.053553
v -0.000000 -0.475000 -1.053553
v 0.000000 0.125000 0.353553
vt 0.4578 0.8608
vt 0.6491 0.6990
vt 0.6491 0.8608
vt 0.7323 0.9551
vt 0.5572 0.9551
vt 0.5572 0.0139
vt 0.5572 0.9551
vt 0.3821 0.9551
vt 0.7268 0.9555
vt 0.5571 0.9555
vt 0.5571 0.0197
vt 0.3874 0.9555
vt 0.3675 0.2598
vt 0.1940 1.0000
vt 0.1940 0.0000
vt 0.0205 0.2598
vt 0.1940 0.0000
vt 0.4578 0.6990
vn 0.0000 -1.0000 0.0000
vn -0.7030 0.1078 0.7030
vn -0.7030 0.1078 -0.7030
vn 0.7030 0.1078 0.7030
vn 0.7030 0.1078 -0.7030
vn 1.0000 0.0000 -0.0000
s off
f 3/1/1 2/2/1 8/3/1
f 3/4/2 8/5/2 5/6/2
f 4/7/3 3/8/3 5/6/3
f 8/9/4 2/10/4 5/11/4
f 2/10/5 4/12/5 5/11/5
f 1/13/6 5/14/6 6/15/6
f 5/14/6 4/16/6 7/17/6
f 3/1/1 4/18/1 2/2/1
